<svg width="140" height="38" viewBox="0 0 140 38" fill="none" xmlns="http://www.w3.org/2000/svg">
<rect width="42" height="38" rx="5" fill="#405B74"/>
<path d="M14.08 21.998L13.209 24H12L15.796 15.368H17.07L20.853 24H19.605L18.734 21.998H14.08ZM18.266 20.919L16.407 16.642L14.548 20.919H18.266ZM21.8886 15.303H23.0066V24H21.8886V15.303ZM25.5429 16.382H26.6609V18.02H28.5719V19.008H26.6609V21.842C26.6609 22.2407 26.7475 22.5353 26.9209 22.726C27.0942 22.9167 27.3715 23.012 27.7529 23.012H28.5719V24H27.6489C26.9815 24 26.4615 23.8397 26.0889 23.519C25.7249 23.1897 25.5429 22.7087 25.5429 22.076V19.008H24.4379V18.02H25.5429V16.382Z" fill="white"/>
<path d="M58.955 18.97H56.42V16.435H55.38V18.97H52.845V20.01H55.38V22.545H56.42V20.01H58.955V18.97Z" fill="white"/>
<rect x="70" width="70" height="38" rx="5" fill="#405B74"/>
<path d="M90.325 21.855H91.599C91.807 22.2277 92.1277 22.5267 92.561 22.752C93.003 22.9687 93.5057 23.077 94.069 23.077C94.719 23.077 95.2563 22.9427 95.681 22.674C96.1057 22.3967 96.318 22.05 96.318 21.634C96.318 21.2267 96.1707 20.9147 95.876 20.698C95.5813 20.4813 95.1177 20.3383 94.485 20.269L92.977 20.113C92.1537 20.035 91.5427 19.788 91.144 19.372C90.754 18.956 90.559 18.4273 90.559 17.786C90.559 17.0147 90.858 16.3907 91.456 15.914C92.0627 15.4373 92.873 15.199 93.887 15.199C94.8577 15.199 95.6463 15.4287 96.253 15.888C96.8683 16.3473 97.293 16.889 97.527 17.513H96.253C96.0797 17.149 95.7763 16.8543 95.343 16.629C94.9097 16.4037 94.4113 16.291 93.848 16.291C93.198 16.291 92.6823 16.4297 92.301 16.707C91.9197 16.9843 91.729 17.3267 91.729 17.734C91.729 18.5053 92.262 18.943 93.328 19.047L94.953 19.216C95.7503 19.3027 96.37 19.554 96.812 19.97C97.2627 20.386 97.488 20.919 97.488 21.569C97.488 22.2623 97.1847 22.869 96.578 23.389C95.9713 23.909 95.135 24.169 94.069 24.169C93.029 24.169 92.2013 23.948 91.586 23.506C90.9707 23.0553 90.5503 22.505 90.325 21.855ZM102.158 17.851C102.964 17.851 103.597 18.0937 104.056 18.579C104.524 19.0643 104.758 19.697 104.758 20.477V24H103.64V20.568C103.64 20.0567 103.506 19.6493 103.237 19.346C102.969 19.0427 102.57 18.891 102.041 18.891C101.53 18.891 101.084 19.073 100.702 19.437C100.33 19.801 100.143 20.2863 100.143 20.893V24H99.0254V15.303H100.143V18.67C100.603 18.124 101.274 17.851 102.158 17.851ZM106.732 18.02H107.85V24H106.732V18.02ZM106.641 16.655V15.303H107.941V16.655H106.641ZM111.334 24H110.216V19.008H109.111V18.02H110.216V17.227C110.216 16.5943 110.398 16.1177 110.762 15.797C111.135 15.4677 111.655 15.303 112.322 15.303H113.245V16.291H112.426C112.045 16.291 111.767 16.3863 111.594 16.577C111.421 16.7677 111.334 17.0623 111.334 17.461V18.02H113.245V19.008H111.334V24ZM114.994 16.382H116.112V18.02H118.023V19.008H116.112V21.842C116.112 22.2407 116.199 22.5353 116.372 22.726C116.545 22.9167 116.823 23.012 117.204 23.012H118.023V24H117.1C116.433 24 115.913 23.8397 115.54 23.519C115.176 23.1897 114.994 22.7087 114.994 22.076V19.008H113.889V18.02H114.994V16.382Z" fill="white"/>
</svg>
