<svg width="75" height="50" viewBox="0 0 75 50" fill="none" xmlns="http://www.w3.org/2000/svg">
<path d="M69.3831 0.758789C69.3831 0.758789 8.71919 0.758789 5.61694 0.758789C2.5147 0.758789 0 3.23996 0 6.30084C0 9.36172 0 16.9197 0 16.9197H75V6.30084C75 3.23996 72.4853 0.758789 69.3831 0.758789Z" fill="#F5F5F5"/>
<path d="M69.3831 0.758789C72.4853 0.758789 75 3.23996 75 6.30084V0.758789H69.3831Z" fill="#F5F5F5"/>
<path d="M0 6.30084C0 3.23996 2.5147 0.758789 5.61694 0.758789H0V6.30084Z" fill="#F5F5F5"/>
<path d="M0 43.6994C0 46.7602 2.5147 49.2415 5.61694 49.2415H69.3831C72.4852 49.2415 75 46.7603 75 43.6994V33.0806H0V43.6994Z" fill="#FF4B55"/>
<path d="M5.61694 49.2415C2.5147 49.2415 0 46.7602 0 43.6994V49.2415H5.61694Z" fill="#FF4B55"/>
<path d="M75 43.6994C75 46.7603 72.4852 49.2415 69.3831 49.2415H75V43.6994Z" fill="#FF4B55"/>
<path d="M75 16.9194H0V33.0795H75V16.9194Z" fill="#41479B"/>
</svg>
