<svg width="74" height="48" viewBox="0 0 74 48" fill="none" xmlns="http://www.w3.org/2000/svg">
<path d="M68.4579 0H5.54205C2.48117 0 0 2.45646 0 5.48686V42.5131C0 45.5434 2.48117 48 5.54205 48H68.4579C71.5187 48 74 45.5435 74 42.5131V5.48686C74 2.45646 71.5188 0 68.4579 0Z" fill="#F5F5F5"/>
<path d="M5.54205 48C2.48117 48 0 45.5434 0 42.5131V48H5.54205Z" fill="#F5F5F5"/>
<path d="M68.4579 0C71.5188 0 74 2.45646 74 5.48686V0H68.4579Z" fill="#F5F5F5"/>
<path d="M74 42.5131C74 45.5435 71.5187 48 68.4579 48H74V42.5131Z" fill="#F5F5F5"/>
<path d="M0.304932 3.69234H74C73.249 1.54353 70.8837 0 68.4581 0H5.54217C3.11635 0 1.05606 1.54353 0.304932 3.69234Z" fill="#FF4B55"/>
<path d="M68.4581 0C70.8837 0 73.249 1.54353 74 3.69234V0H68.4581Z" fill="#FF4B55"/>
<path d="M74 14.7695H0V18.4617H74V14.7695Z" fill="#FF4B55"/>
<path d="M74 7.38428H0V11.0765H74V7.38428Z" fill="#FF4B55"/>
<path d="M0 24.5834C0 25.281 0.571332 25.8466 1.27592 25.8466H74V22.1543H0V24.5834Z" fill="#FF4B55"/>
<path d="M74 36.9238H0V40.6162H74V36.9238Z" fill="#FF4B55"/>
<path d="M74 44.3076H0C0.751129 46.4564 3.11651 48 5.54218 48H68.4581C70.8839 48 73.2489 46.4564 74 44.3076Z" fill="#FF4B55"/>
<path d="M74 44.3076C73.2489 46.4564 70.8839 48 68.4581 48H74V44.3076Z" fill="#FF4B55"/>
<path d="M5.54218 48C3.11651 48 0.751129 46.4564 0 44.3076V48H5.54218Z" fill="#FF4B55"/>
<path d="M74 29.5386H0V33.2308H74V29.5386Z" fill="#FF4B55"/>
<path d="M1.27592 25.8462H33.1725C33.8771 25.8462 34.4484 25.2806 34.4484 24.583V1.26321C34.4484 0.565498 33.8771 0 33.1725 0H5.54205C2.48117 0.000143092 0 2.4566 0 5.487V24.583C0 25.2807 0.571332 25.8462 1.27592 25.8462Z" fill="#41479B"/>
<path d="M0 5.487C0 2.4566 2.48117 0.000143092 5.54205 0H0V5.487Z" fill="#41479B"/>
<path d="M3.58289 2.89894L3.8653 3.73746L4.75807 3.74418C4.8737 3.74519 4.92154 3.89114 4.82861 3.95911L4.11043 4.48411L4.37984 5.32678C4.41481 5.43582 4.28921 5.52625 4.19513 5.45957L3.46886 4.94573L2.74259 5.45971C2.6485 5.52639 2.52319 5.43596 2.55788 5.32692L2.82728 4.48426L2.10911 3.95925C2.01617 3.89114 2.06401 3.74519 2.17964 3.74433L3.07241 3.7376L3.35482 2.89909C3.39124 2.79034 3.54618 2.79034 3.58289 2.89894Z" fill="#F5F5F5"/>
<path d="M3.58289 7.28537L3.8653 8.12389L4.75807 8.13061C4.8737 8.13162 4.92154 8.27743 4.82861 8.34554L4.11043 8.87069L4.37984 9.71335C4.41481 9.82239 4.28921 9.91282 4.19513 9.84614L3.46886 9.3323L2.74259 9.84628C2.6485 9.91282 2.52319 9.82253 2.55788 9.7135L2.82728 8.87083L2.10911 8.34568C2.01617 8.27757 2.06401 8.13176 2.17964 8.13076L3.07241 8.12403L3.35482 7.28551C3.39124 7.17691 3.54618 7.17691 3.58289 7.28537Z" fill="#F5F5F5"/>
<path d="M3.58289 11.6716L3.8653 12.5102L4.75807 12.5169C4.8737 12.5179 4.92154 12.6637 4.82861 12.7318L4.11043 13.257L4.37984 14.0996C4.41481 14.2087 4.28921 14.2991 4.19513 14.2324L3.46886 13.7186L2.74259 14.2326C2.6485 14.2991 2.52319 14.209 2.55788 14.0998L2.82728 13.2571L2.10911 12.732C2.01617 12.6638 2.06401 12.518 2.17964 12.517L3.07241 12.5103L3.35482 11.6718C3.39124 11.563 3.54618 11.563 3.58289 11.6716Z" fill="#F5F5F5"/>
<path d="M3.58289 16.0578L3.8653 16.8963L4.75807 16.9031C4.8737 16.9041 4.92154 17.05 4.82861 17.118L4.11043 17.6431L4.37984 18.4858C4.41481 18.5948 4.28921 18.6853 4.19513 18.6186L3.46886 18.1047L2.74259 18.6187C2.6485 18.6853 2.52319 18.595 2.55788 18.4859L2.82728 17.6433L2.10911 17.1181C2.01617 17.0503 2.06401 16.9042 2.17964 16.9032L3.07241 16.8965L3.35482 16.058C3.39124 15.9492 3.54618 15.9492 3.58289 16.0578Z" fill="#F5F5F5"/>
<path d="M3.58289 20.4443L3.8653 21.2828L4.75807 21.2895C4.8737 21.2906 4.92154 21.4364 4.82861 21.5045L4.11043 22.0296L4.37984 22.8723C4.41481 22.9813 4.28921 23.0718 4.19513 23.0051L3.46886 22.4912L2.74259 23.0052C2.6485 23.0718 2.52319 22.9815 2.55788 22.8724L2.82728 22.0298L2.10911 21.5046C2.01617 21.4365 2.06401 21.2907 2.17964 21.2897L3.07241 21.283L3.35482 20.4444C3.39124 20.3358 3.54618 20.3358 3.58289 20.4443Z" fill="#F5F5F5"/>
<path d="M7.02161 5.04955L7.30403 5.88807L8.1968 5.89479C8.31242 5.89579 8.36026 6.04175 8.26733 6.10972L7.54915 6.63486L7.81856 7.47753C7.85353 7.58657 7.72794 7.677 7.63385 7.61032L6.90758 7.09633L6.18131 7.61032C6.08722 7.67686 5.96191 7.58657 5.9966 7.47753L6.266 6.63486L5.54783 6.10972C5.45489 6.04161 5.50273 5.89579 5.61836 5.89479L6.51113 5.88807L6.79354 5.04955C6.82996 4.94108 6.98505 4.94108 7.02161 5.04955Z" fill="#F5F5F5"/>
<path d="M7.02161 9.43583L7.30403 10.2743L8.1968 10.2811C8.31242 10.2821 8.36026 10.428 8.26733 10.496L7.54915 11.0211L7.81856 11.8638C7.85353 11.9728 7.72794 12.0633 7.63385 11.9966L6.90758 11.4826L6.18131 11.9966C6.08722 12.0631 5.96191 11.973 5.9966 11.8638L6.266 11.0211L5.54783 10.496C5.45489 10.4282 5.50273 10.2821 5.61836 10.2811L6.51113 10.2743L6.79354 9.43583C6.82996 9.32722 6.98505 9.32722 7.02161 9.43583Z" fill="#F5F5F5"/>
<path d="M7.02161 13.822L7.30403 14.6605L8.1968 14.6672C8.31242 14.6682 8.36026 14.814 8.26733 14.8822L7.54915 15.4073L7.81856 16.25C7.85353 16.359 7.72794 16.4494 7.63385 16.3828L6.90758 15.8688L6.18131 16.3828C6.08722 16.4493 5.96191 16.359 5.9966 16.25L6.266 15.4073L5.54783 14.8822C5.45489 14.814 5.50273 14.6682 5.61836 14.6672L6.51113 14.6605L6.79354 13.822C6.82996 13.7134 6.98505 13.7134 7.02161 13.822Z" fill="#F5F5F5"/>
<path d="M7.02161 18.2085L7.30403 19.0471L8.1968 19.0538C8.31242 19.0548 8.36026 19.2006 8.26733 19.2687L7.54915 19.7939L7.81856 20.6365C7.85353 20.7456 7.72794 20.836 7.63385 20.7693L6.90758 20.2553L6.18131 20.7693C6.08722 20.836 5.96191 20.7456 5.9966 20.6365L6.266 19.7939L5.54783 19.2687C5.45489 19.2006 5.50273 19.0548 5.61836 19.0538L6.51113 19.0471L6.79354 18.2085C6.82996 18.1001 6.98505 18.1001 7.02161 18.2085Z" fill="#F5F5F5"/>
<path d="M10.4606 2.89884L10.743 3.73736L11.6358 3.74408C11.7514 3.74508 11.7992 3.89104 11.7063 3.959L10.9881 4.48401L11.2575 5.32668C11.2925 5.43571 11.1669 5.52615 11.0728 5.45947L10.3465 4.94548L9.62027 5.45947C9.52618 5.52615 9.40087 5.43571 9.43556 5.32668L9.70497 4.48401L8.98679 3.959C8.89386 3.89089 8.9417 3.74494 9.05732 3.74408L9.95009 3.73736L10.2325 2.89884C10.2689 2.79023 10.424 2.79023 10.4606 2.89884Z" fill="#F5F5F5"/>
<path d="M10.4606 7.28539L10.743 8.12391L11.6358 8.13063C11.7514 8.13163 11.7992 8.27744 11.7063 8.34556L10.9881 8.8707L11.2575 9.71337C11.2925 9.8224 11.1669 9.91284 11.0728 9.84616L10.3465 9.33217L9.62027 9.84616C9.52618 9.91269 9.40087 9.8224 9.43556 9.71337L9.70497 8.8707L8.98679 8.34556C8.89386 8.27744 8.9417 8.13163 9.05732 8.13063L9.95009 8.12391L10.2325 7.28539C10.2689 7.17692 10.424 7.17692 10.4606 7.28539Z" fill="#F5F5F5"/>
<path d="M10.4606 11.6717L10.743 12.5102L11.6358 12.5169C11.7514 12.5179 11.7992 12.6637 11.7063 12.7318L10.9881 13.257L11.2575 14.0996C11.2925 14.2087 11.1669 14.2991 11.0728 14.2324L10.3465 13.7185L9.62027 14.2324C9.52618 14.299 9.40087 14.2088 9.43556 14.0996L9.70497 13.257L8.98679 12.7318C8.89386 12.6637 8.9417 12.5179 9.05732 12.5169L9.95009 12.5102L10.2325 11.6717C10.2689 11.5631 10.424 11.5631 10.4606 11.6717Z" fill="#F5F5F5"/>
<path d="M10.4606 16.0578L10.743 16.8964L11.6358 16.9031C11.7514 16.9041 11.7992 17.05 11.7063 17.118L10.9881 17.6431L11.2575 18.4858C11.2925 18.5949 11.1669 18.6853 11.0728 18.6186L10.3465 18.1046L9.62027 18.6186C9.52618 18.6851 9.40087 18.5949 9.43556 18.4858L9.70497 17.6431L8.98679 17.118C8.89386 17.0502 8.9417 16.9041 9.05732 16.9031L9.95009 16.8964L10.2325 16.0578C10.2689 15.9492 10.424 15.9492 10.4606 16.0578Z" fill="#F5F5F5"/>
<path d="M10.4606 20.4443L10.743 21.2828L11.6358 21.2896C11.7514 21.2906 11.7992 21.4364 11.7063 21.5045L10.9881 22.0296L11.2575 22.8723C11.2925 22.9813 11.1669 23.0718 11.0728 23.0051L10.3465 22.4911L9.62027 23.0051C9.52618 23.0716 9.40087 22.9813 9.43556 22.8723L9.70497 22.0296L8.98679 21.5045C8.89386 21.4364 8.9417 21.2906 9.05732 21.2896L9.95009 21.2828L10.2325 20.4443C10.2689 20.3359 10.424 20.3359 10.4606 20.4443Z" fill="#F5F5F5"/>
<path d="M13.8995 5.04955L14.182 5.88807L15.0747 5.89479C15.1904 5.89579 15.2382 6.04175 15.1453 6.10972L14.4271 6.63486L14.6965 7.47753C14.7315 7.58657 14.6059 7.677 14.5118 7.61032L13.7855 7.09633L13.0592 7.61032C12.9651 7.67686 12.8398 7.58657 12.8745 7.47753L13.1439 6.63486L12.4258 6.10972C12.3328 6.04161 12.3807 5.89579 12.4963 5.89479L13.3891 5.88807L13.6715 5.04955C13.7077 4.94108 13.863 4.94108 13.8995 5.04955Z" fill="#F5F5F5"/>
<path d="M13.8995 9.43583L14.182 10.2743L15.0747 10.2811C15.1904 10.2821 15.2382 10.428 15.1453 10.496L14.4271 11.0211L14.6965 11.8638C14.7315 11.9728 14.6059 12.0633 14.5118 11.9966L13.7855 11.4826L13.0592 11.9966C12.9651 12.0631 12.8398 11.973 12.8745 11.8638L13.1439 11.0211L12.4258 10.496C12.3328 10.4282 12.3807 10.2821 12.4963 10.2811L13.3891 10.2743L13.6715 9.43583C13.7077 9.32722 13.863 9.32722 13.8995 9.43583Z" fill="#F5F5F5"/>
<path d="M13.8995 13.822L14.182 14.6605L15.0747 14.6672C15.1904 14.6682 15.2382 14.814 15.1453 14.8822L14.4271 15.4073L14.6965 16.25C14.7315 16.359 14.6059 16.4494 14.5118 16.3828L13.7855 15.8688L13.0592 16.3828C12.9651 16.4493 12.8398 16.359 12.8745 16.25L13.1439 15.4073L12.4258 14.8822C12.3328 14.814 12.3807 14.6682 12.4963 14.6672L13.3891 14.6605L13.6715 13.822C13.7077 13.7134 13.863 13.7134 13.8995 13.822Z" fill="#F5F5F5"/>
<path d="M13.8995 18.2085L14.182 19.0471L15.0747 19.0538C15.1904 19.0548 15.2382 19.2006 15.1453 19.2687L14.4271 19.7939L14.6965 20.6365C14.7315 20.7456 14.6059 20.836 14.5118 20.7693L13.7855 20.2553L13.0592 20.7693C12.9651 20.836 12.8398 20.7456 12.8745 20.6365L13.1439 19.7939L12.4258 19.2687C12.3328 19.2006 12.3807 19.0548 12.4963 19.0538L13.3891 19.0471L13.6715 18.2085C13.7077 18.1001 13.863 18.1001 13.8995 18.2085Z" fill="#F5F5F5"/>
<path d="M17.3384 2.89894L17.6208 3.73746L18.5136 3.74418C18.6292 3.74519 18.6771 3.89114 18.5841 3.95911L17.8659 4.48411L18.1354 5.32678C18.1703 5.43582 18.0447 5.52625 17.9506 5.45957L17.2242 4.94573L16.498 5.45971C16.4039 5.52639 16.2786 5.43596 16.3132 5.32692L16.5827 4.48426L15.8645 3.95925C15.7715 3.89114 15.8194 3.74519 15.935 3.74433L16.8278 3.7376L17.1102 2.89909C17.1468 2.79034 17.3018 2.79034 17.3384 2.89894Z" fill="#F5F5F5"/>
<path d="M17.3384 7.28539L17.6208 8.12391L18.5136 8.13063C18.6292 8.13163 18.6771 8.27744 18.5841 8.34556L17.8659 8.8707L18.1354 9.71337C18.1703 9.8224 18.0447 9.91284 17.9506 9.84616L17.2242 9.33217L16.498 9.84616C16.4039 9.91269 16.2786 9.8224 16.3132 9.71337L16.5827 8.8707L15.8645 8.34556C15.7715 8.27744 15.8194 8.13163 15.935 8.13063L16.8278 8.12391L17.1102 7.28539C17.1468 7.17692 17.3018 7.17692 17.3384 7.28539Z" fill="#F5F5F5"/>
<path d="M17.3384 11.6717L17.6208 12.5102L18.5136 12.5169C18.6292 12.5179 18.6771 12.6637 18.5841 12.7319L17.8659 13.257L18.1354 14.0997C18.1703 14.2087 18.0447 14.2991 17.9506 14.2325L17.2242 13.7183L16.498 14.2323C16.4039 14.2988 16.2786 14.2086 16.3132 14.0995L16.5827 13.2569L15.8645 12.7317C15.7715 12.6636 15.8194 12.5178 15.935 12.5168L16.8278 12.5101L17.1102 11.6715C17.1468 11.5631 17.3018 11.5631 17.3384 11.6717Z" fill="#F5F5F5"/>
<path d="M17.3384 16.0578L17.6208 16.8964L18.5136 16.9031C18.6292 16.9041 18.6771 17.05 18.5841 17.118L17.8659 17.6431L18.1354 18.4858C18.1703 18.5949 18.0447 18.6853 17.9506 18.6186L17.2242 18.1046L16.498 18.6186C16.4039 18.6851 16.2786 18.5949 16.3132 18.4858L16.5827 17.6431L15.8645 17.118C15.7715 17.0502 15.8194 16.9041 15.935 16.9031L16.8278 16.8964L17.1102 16.0578C17.1468 15.9492 17.3018 15.9492 17.3384 16.0578Z" fill="#F5F5F5"/>
<path d="M17.3384 20.4443L17.6208 21.2828L18.5136 21.2896C18.6292 21.2906 18.6771 21.4364 18.5841 21.5045L17.8659 22.0296L18.1354 22.8723C18.1703 22.9813 18.0447 23.0718 17.9506 23.0051L17.2242 22.4911L16.498 23.0051C16.4039 23.0716 16.2786 22.9813 16.3132 22.8723L16.5827 22.0296L15.8645 21.5045C15.7715 21.4364 15.8194 21.2906 15.935 21.2896L16.8278 21.2828L17.1102 20.4443C17.1468 20.3359 17.3018 20.3359 17.3384 20.4443Z" fill="#F5F5F5"/>
<path d="M20.7772 5.04955L21.0596 5.88807L21.9524 5.89479C22.068 5.89579 22.1159 6.04175 22.0229 6.10972L21.3048 6.63486L21.5742 7.47753C21.6091 7.58657 21.4835 7.677 21.3895 7.61032L20.6632 7.09633L19.9369 7.61032C19.8428 7.67686 19.7175 7.58657 19.7522 7.47753L20.0216 6.63486L19.3034 6.10972C19.2105 6.04161 19.2583 5.89579 19.374 5.89479L20.2667 5.88807L20.5492 5.04955C20.5857 4.94108 20.7407 4.94108 20.7772 5.04955Z" fill="#F5F5F5"/>
<path d="M20.7772 9.43583L21.0596 10.2743L21.9524 10.2811C22.068 10.2821 22.1159 10.428 22.0229 10.496L21.3048 11.0211L21.5742 11.8638C21.6091 11.9728 21.4835 12.0633 21.3895 11.9966L20.6632 11.4826L19.9369 11.9966C19.8428 12.0631 19.7175 11.973 19.7522 11.8638L20.0216 11.0211L19.3034 10.496C19.2105 10.4282 19.2583 10.2821 19.374 10.2811L20.2667 10.2743L20.5492 9.43583C20.5857 9.32722 20.7407 9.32722 20.7772 9.43583Z" fill="#F5F5F5"/>
<path d="M20.7772 13.822L21.0596 14.6605L21.9524 14.6672C22.068 14.6682 22.1159 14.814 22.0229 14.8822L21.3048 15.4073L21.5742 16.25C21.6091 16.359 21.4835 16.4494 21.3895 16.3828L20.6632 15.8688L19.9369 16.3828C19.8428 16.4493 19.7175 16.359 19.7522 16.25L20.0216 15.4073L19.3034 14.8822C19.2105 14.814 19.2583 14.6682 19.374 14.6672L20.2667 14.6605L20.5492 13.822C20.5857 13.7134 20.7407 13.7134 20.7772 13.822Z" fill="#F5F5F5"/>
<path d="M20.7772 18.2085L21.0596 19.0471L21.9524 19.0538C22.068 19.0548 22.1159 19.2006 22.0229 19.2687L21.3048 19.7939L21.5742 20.6365C21.6091 20.7456 21.4835 20.836 21.3895 20.7693L20.6632 20.2553L19.9369 20.7693C19.8428 20.836 19.7175 20.7456 19.7522 20.6365L20.0216 19.7939L19.3034 19.2687C19.2105 19.2006 19.2583 19.0548 19.374 19.0538L20.2667 19.0471L20.5492 18.2085C20.5857 18.1001 20.7407 18.1001 20.7772 18.2085Z" fill="#F5F5F5"/>
<path d="M24.2161 2.89884L24.4985 3.73736L25.3912 3.74408C25.5069 3.74508 25.5547 3.89104 25.4618 3.959L24.7436 4.48401L25.013 5.32668C25.048 5.43571 24.9224 5.52615 24.8283 5.45947L24.102 4.94548L23.3758 5.45947C23.2817 5.52615 23.1564 5.43571 23.1911 5.32668L23.4605 4.48401L22.7423 3.959C22.6494 3.89089 22.6972 3.74494 22.8128 3.74408L23.7056 3.73736L23.988 2.89884C24.0243 2.79023 24.1795 2.79023 24.2161 2.89884Z" fill="#F5F5F5"/>
<path d="M24.2159 7.28539L24.4984 8.12391L25.3911 8.13063C25.5067 8.13163 25.5546 8.27744 25.4617 8.34556L24.7435 8.8707L25.0129 9.71337C25.0479 9.8224 24.9223 9.91284 24.8282 9.84616L24.1019 9.33217L23.3756 9.84616C23.2816 9.91269 23.1562 9.8224 23.1909 9.71337L23.4603 8.8707L22.7422 8.34556C22.6492 8.27744 22.6971 8.13163 22.8127 8.13063L23.7055 8.12391L23.9879 7.28539C24.0242 7.17692 24.1794 7.17692 24.2159 7.28539Z" fill="#F5F5F5"/>
<path d="M24.2159 11.6717L24.4984 12.5102L25.3911 12.5169C25.5067 12.5179 25.5546 12.6637 25.4617 12.7318L24.7435 13.257L25.0129 14.0996C25.0479 14.2087 24.9223 14.2991 24.8282 14.2324L24.1019 13.7185L23.3756 14.2324C23.2816 14.299 23.1562 14.2088 23.1909 14.0996L23.4603 13.257L22.7422 12.7318C22.6492 12.6637 22.6971 12.5179 22.8127 12.5169L23.7055 12.5102L23.9879 11.6717C24.0242 11.5631 24.1794 11.5631 24.2159 11.6717Z" fill="#F5F5F5"/>
<path d="M24.2159 16.0578L24.4984 16.8964L25.3911 16.9031C25.5067 16.9041 25.5546 17.05 25.4617 17.118L24.7435 17.6431L25.0129 18.4858C25.0479 18.5949 24.9223 18.6853 24.8282 18.6186L24.1019 18.1046L23.3756 18.6186C23.2816 18.6851 23.1562 18.5949 23.1909 18.4858L23.4603 17.6431L22.7422 17.118C22.6492 17.0502 22.6971 16.9041 22.8127 16.9031L23.7055 16.8964L23.9879 16.0578C24.0242 15.9492 24.1794 15.9492 24.2159 16.0578Z" fill="#F5F5F5"/>
<path d="M24.2159 20.4443L24.4984 21.2828L25.3911 21.2896C25.5067 21.2906 25.5546 21.4364 25.4617 21.5045L24.7435 22.0296L25.0129 22.8723C25.0479 22.9813 24.9223 23.0718 24.8282 23.0051L24.1019 22.4911L23.3756 23.0051C23.2816 23.0716 23.1562 22.9813 23.1909 22.8723L23.4603 22.0296L22.7422 21.5045C22.6492 21.4364 22.6971 21.2906 22.8127 21.2896L23.7055 21.2828L23.9879 20.4443C24.0242 20.3359 24.1794 20.3359 24.2159 20.4443Z" fill="#F5F5F5"/>
<path d="M27.6549 5.04955L27.9373 5.88807L28.8301 5.89479C28.9457 5.89579 28.9936 6.04175 28.9006 6.10972L28.1825 6.63486L28.4519 7.47753C28.4868 7.58657 28.3612 7.677 28.2671 7.61032L27.5409 7.09633L26.8146 7.61032C26.7205 7.67686 26.5952 7.58657 26.6299 7.47753L26.8993 6.63486L26.1811 6.10972C26.0882 6.04161 26.136 5.89579 26.2517 5.89479L27.1444 5.88807L27.4268 5.04955C27.4633 4.94108 27.6183 4.94108 27.6549 5.04955Z" fill="#F5F5F5"/>
<path d="M27.6549 9.43583L27.9373 10.2743L28.8301 10.2811C28.9457 10.2821 28.9936 10.428 28.9006 10.496L28.1825 11.0211L28.4519 11.8638C28.4868 11.9728 28.3612 12.0633 28.2671 11.9966L27.5409 11.4826L26.8146 11.9966C26.7205 12.0631 26.5952 11.973 26.6299 11.8638L26.8993 11.0211L26.1811 10.496C26.0882 10.4282 26.136 10.2821 26.2517 10.2811L27.1444 10.2743L27.4268 9.43583C27.4633 9.32722 27.6183 9.32722 27.6549 9.43583Z" fill="#F5F5F5"/>
<path d="M27.6549 13.822L27.9373 14.6605L28.8301 14.6672C28.9457 14.6682 28.9936 14.814 28.9006 14.8822L28.1825 15.4073L28.4519 16.25C28.4868 16.359 28.3612 16.4494 28.2671 16.3828L27.5409 15.8688L26.8146 16.3828C26.7205 16.4493 26.5952 16.359 26.6299 16.25L26.8993 15.4073L26.1811 14.8822C26.0882 14.814 26.136 14.6682 26.2517 14.6672L27.1444 14.6605L27.4268 13.822C27.4633 13.7134 27.6183 13.7134 27.6549 13.822Z" fill="#F5F5F5"/>
<path d="M27.6549 18.2085L27.9373 19.0471L28.8301 19.0538C28.9457 19.0548 28.9936 19.2006 28.9006 19.2687L28.1825 19.7939L28.4519 20.6365C28.4868 20.7456 28.3612 20.836 28.2671 20.7693L27.5409 20.2553L26.8146 20.7693C26.7205 20.836 26.5952 20.7456 26.6299 20.6365L26.8993 19.7939L26.1811 19.2687C26.0882 19.2006 26.136 19.0548 26.2517 19.0538L27.1444 19.0471L27.4268 18.2085C27.4633 18.1001 27.6183 18.1001 27.6549 18.2085Z" fill="#F5F5F5"/>
<path d="M31.0939 2.89884L31.3763 3.73736L32.2691 3.74408C32.3847 3.74508 32.4325 3.89104 32.3396 3.959L31.6214 4.48401L31.8908 5.32668C31.9258 5.43571 31.8002 5.52615 31.7061 5.45947L30.9798 4.94548L30.2536 5.45947C30.1595 5.52615 30.0342 5.43571 30.0689 5.32668L30.3383 4.48401L29.6201 3.959C29.5272 3.89089 29.575 3.74494 29.6906 3.74408L30.5834 3.73736L30.8658 2.89884C30.9022 2.79023 31.0572 2.79023 31.0939 2.89884Z" fill="#F5F5F5"/>
<path d="M31.0939 7.28539L31.3763 8.12391L32.2691 8.13063C32.3847 8.13163 32.4325 8.27744 32.3396 8.34556L31.6214 8.8707L31.8908 9.71337C31.9258 9.8224 31.8002 9.91284 31.7061 9.84616L30.9798 9.33217L30.2536 9.84616C30.1595 9.91269 30.0342 9.8224 30.0689 9.71337L30.3383 8.8707L29.6201 8.34556C29.5272 8.27744 29.575 8.13163 29.6906 8.13063L30.5834 8.12391L30.8658 7.28539C30.9022 7.17692 31.0572 7.17692 31.0939 7.28539Z" fill="#F5F5F5"/>
<path d="M31.0939 11.6717L31.3763 12.5102L32.2691 12.5169C32.3847 12.5179 32.4325 12.6637 32.3396 12.7318L31.6214 13.257L31.8908 14.0996C31.9258 14.2087 31.8002 14.2991 31.7061 14.2324L30.9798 13.7185L30.2536 14.2324C30.1595 14.299 30.0342 14.2088 30.0689 14.0996L30.3383 13.257L29.6201 12.7318C29.5272 12.6637 29.575 12.5179 29.6906 12.5169L30.5834 12.5102L30.8658 11.6717C30.9022 11.5631 31.0572 11.5631 31.0939 11.6717Z" fill="#F5F5F5"/>
<path d="M31.0939 16.0578L31.3763 16.8964L32.2691 16.9031C32.3847 16.9041 32.4325 17.05 32.3396 17.118L31.6214 17.6431L31.8908 18.4858C31.9258 18.5949 31.8002 18.6853 31.7061 18.6186L30.9798 18.1046L30.2536 18.6186C30.1595 18.6851 30.0342 18.5949 30.0689 18.4858L30.3383 17.6431L29.6201 17.118C29.5272 17.0502 29.575 16.9041 29.6906 16.9031L30.5834 16.8964L30.8658 16.0578C30.9022 15.9492 31.0572 15.9492 31.0939 16.0578Z" fill="#F5F5F5"/>
<path d="M31.0939 20.4443L31.3763 21.2828L32.2691 21.2896C32.3847 21.2906 32.4325 21.4364 32.3396 21.5045L31.6214 22.0296L31.8908 22.8723C31.9258 22.9813 31.8002 23.0718 31.7061 23.0051L30.9798 22.4911L30.2536 23.0051C30.1595 23.0716 30.0342 22.9813 30.0689 22.8723L30.3383 22.0296L29.6201 21.5045C29.5272 21.4364 29.575 21.2906 29.6906 21.2896L30.5834 21.2828L30.8658 20.4443C30.9022 20.3359 31.0572 20.3359 31.0939 20.4443Z" fill="#F5F5F5"/>
</svg>
